The Last Song *2010*[BluRay][1080p][ENG, POL]

General information:
Country: USA
Release: 31 March 2010
Genre: Drama, Romance 
Director: Julie Anne Robinson
Screenplay: Nicholas Sparks, Jeff Van Wie
Original Music: Aaron Zigman
Cinematography by: John Lindley
Duration: 1h 47mn
Language: English, Polish
Subtitles: English, Polish
Rating: 7.5/10 - 3313 votes 

Cast:
Miley Cyrus  ...  Veronica 'Ronnie' Miller  
Greg Kinnear  ...  Steve Miller  
Bobby Coleman  ...  Jonah Miller  
Liam Hemsworth  ...  Will Blakelee  
Hallock Beals  ...  Scott  
Kelly Preston  ...  Kim  
Nick Lashaway  ...  Marcus  
Carly Chaikin  ...  Galadriel  
Kate Vernon  ...  Susan Blakelee  
Nick Searcy  ...  Tom Blakelee  
Adam Barnett  ...  Teddy  
Michael Jamorski  ...  Lance  
Melissa Ordway  ...  Ashley  
Carrie Malabre  ...  Cassie  
Lance E. Nichols  ...  Pastor Harris  

Plot:
A drama centered on a rebellious girl who is sent to a Southern beach town for the summer to stay with her father. Through their mutual love of music, the estranged duo learn to reconnect.

Specifications:
General
Format                           : Matroska
Overall bit rate                 : 9 799 Kbps

Video
Format                           : AVC
Format/Info                      : Advanced Video Codec
Format profile                   : High@L4.0
Format settings, CABAC           : Yes
Format settings, ReFrames        : 3 frames
Format settings, GOP             : M=4, N=16
Muxing mode                      : Container profile=Unknown@4.0
Codec ID                         : V_MPEG4/ISO/AVC
Bit rate                         : 7 600 Kbps
Width                            : 1 920 pixels
Height                           : 1 080 pixels
Display aspect ratio             : 16:9
Frame rate                       : 23.976 fps
Color space                      : YUV

Audio 1
Format                           : DTS
Format/Info                      : Digital Theater Systems
Codec ID                         : A_DTS
Bit rate mode                    : Constant
Bit rate                         : 1 510 Kbps
Channel(s)                       : 6 channels
Channel positions                : Front: L C R, Side: L R, LFE
Sampling rate                    : 48.0 KHz
Bit depth                        : 24 bits
Stream size                      : 1.14 GiB (15%)
Title                            : English

Audio 2
Format                           : AC-3
Format/Info                      : Audio Coding 3
Mode extension                   : CM (complete main)
Codec ID                         : A_AC3
Bit rate mode                    : Constant
Bit rate                         : 640 Kbps
Channel(s)                       : 6 channels
Channel positions                : Front: L C R, Side: L R, LFE
Sampling rate                    : 48.0 KHz
Stream size                      : 493 MiB (7%)
Title                            : Polish
Language                         : Polish

Text 1
Format                           : UTF-8
Codec ID                         : S_TEXT/UTF8
Codec ID/Info                    : UTF-8 Plain Text
Title                            : English

Text 2
Format                           : UTF-8
Codec ID                         : S_TEXT/UTF8
Codec ID/Info                    : UTF-8 Plain Text
Title                            : Polish
Language                         : Polish
